<svg xmlns="http://www.w3.org/2000/svg" xmlns:svg="http://www.w3.org/2000/svg" xmlns:xlink="http://www.w3.org/1999/xlink" version="1.0" height="960pt" width="1600pt" viewBox="145 -83 1608 966" ><defs><style type="text/css">
            @font-face {
                font-family: 'lt_regular';
                src: url('https://app.creately.com/diagram/assets/fonts/lato/lt-regular-webfont.woff2') format('woff2'),
                    url('https://app.creately.com/diagram/assets/fonts/lato/lt-regular-webfont.woff') format('woff');
                font-weight: normal;
                font-style: normal;
            }
            @font-face {
                font-family: 'noto_regular';
                src: url('https://app.creately.com/diagram/assets/fonts/noto/noto-regular.woff') format('woff'),
                     url('https://app.creately.com/diagram/assets/fonts/noto/noto-regular.woff2') format('woff2');
                font-weight: normal;
                font-style: normal;
            }
        p {
            margin: 0;
        }
        </style></defs><defs><style>
            span{ display: inline-block; }
        </style></defs><g id="y6MP6oNNKLL"><g transform="translate(300 100)"><rect x="0" y="0" width="100" height="50" fill="rgb(89,88,87)" stroke="#595857" stroke-width="2" stroke-linecap="round" stroke-linejoin="round" stroke-dasharray="0 0"/></g><g transform="translate(318.5, 115) rotate(0, 31.5, 10)" width="63" height="20"><text text-decoration="none" x="0" fill="#ffffff" font-size="11pt" font-family="lt_regular"  y="16">Customer</text><text text-decoration="none" x="63" fill="#4b4b4b" font-size="10pt" font-family="noto_regular"  y="16"></text></g></g><g id="sFLgOfvWjWa"><g transform="translate(500 100)"><path d="M 99.99999999999999,25 L 49.99999999999999,50 L 0,25 L 49.99999999999999,0 L 99.99999999999999,25 L 99.99999999999999,25 Z" fill="rgb(182,182,179)" stroke="#b6b6b3" stroke-width="2" stroke-linecap="round" stroke-linejoin="round" stroke-dasharray="0 0"/></g><g transform="translate(539, 115) rotate(0, 11, 10)" width="22" height="20"><text text-decoration="none" x="0.5" fill="#ffffff" font-size="11pt" font-family="lt_regular"  y="16">has</text><text text-decoration="none" x="21.5" fill="#4b4b4b" font-size="10pt" font-family="noto_regular"  y="16"></text></g></g><g id="qeEgA5bOeq8"><g transform="translate(700 100)"><rect x="0" y="0" width="100" height="50" fill="rgb(89,88,87)" stroke="#595857" stroke-width="2" stroke-linecap="round" stroke-linejoin="round" stroke-dasharray="0 0"/></g><g transform="translate(728, 115) rotate(0, 22, 10)" width="44" height="20"><text text-decoration="none" x="0" fill="#ffffff" font-size="11pt" font-family="lt_regular"  y="16">Orders</text><text text-decoration="none" x="44" fill="#4b4b4b" font-size="10pt" font-family="noto_regular"  y="16"></text></g></g><g id="uybQcVbwoTA"><g transform="translate(950 100)"><rect x="0" y="0" width="100" height="50" fill="rgb(89,88,87)" stroke="#595857" stroke-width="2" stroke-linecap="round" stroke-linejoin="round" stroke-dasharray="0 0"/></g><g transform="translate(1000, 116) rotate(0, 0, 9)" width="0" height="18"><text text-decoration="none" x="0" fill="#4b4b4b" font-size="10pt" font-family="noto_regular"  y="15"></text></g></g><g id="G6yxQzd8wh0"><g transform="translate(950 100)"><path d="M 99.99999999999997,25 L 49.999999999999986,50 L 0,25 L 49.999999999999986,0 L 99.99999999999997,25 L 99.99999999999997,25 Z" fill="rgb(182,182,179)" stroke="#b6b6b3" stroke-width="2" stroke-linecap="round" stroke-linejoin="round" stroke-dasharray="0 0"/></g><g transform="translate(977.5, 105) rotate(0, 22.5, 20)" width="45" height="40"><text text-decoration="none" x="3.5" fill="#ffffff" font-size="11pt" font-family="lt_regular"  y="16">Order&#160;</text><text text-decoration="none" x="0" fill="#ffffff" font-size="11pt" font-family="lt_regular"  y="36">Details</text><text text-decoration="none" x="45" fill="#4b4b4b" font-size="10pt" font-family="noto_regular"  y="36"></text></g></g><g id="h5gIXL8fYPl"><g transform="translate(1150 100)"><rect x="0" y="0" width="100" height="50" fill="rgb(89,88,87)" stroke="#595857" stroke-width="2" stroke-linecap="round" stroke-linejoin="round" stroke-dasharray="0 0"/></g><g transform="translate(1184, 115) rotate(0, 16, 10)" width="32" height="20"><text text-decoration="none" x="0" fill="#ffffff" font-size="11pt" font-family="lt_regular"  y="16">Food</text><text text-decoration="none" x="34" fill="#4b4b4b" font-size="10pt" font-family="noto_regular"  y="16"></text></g></g><g id="pcy31sgrdEk"><g transform="translate(1350 100)"><path d="M 99.99999999999999,25 L 49.99999999999999,50 L 0,25 L 49.99999999999999,0 L 99.99999999999999,25 L 99.99999999999999,25 Z" fill="rgb(182,182,179)" stroke="#b6b6b3" stroke-width="2" stroke-linecap="round" stroke-linejoin="round" stroke-dasharray="0 0"/></g><g transform="translate(1365.5, 115) rotate(0, 34.5, 10)" width="69" height="20"><text text-decoration="none" x="8" fill="#ffffff" font-size="11pt" font-family="lt_regular"  y="16">Belongs&#160;</text><text text-decoration="none" x="27.5" fill="#ffffff" font-size="11pt" font-family="lt_regular"  y="36">to</text><text text-decoration="none" x="41.5" fill="#4b4b4b" font-size="10pt" font-family="noto_regular"  y="36"></text></g></g><g id="koNUe7aIY7m"><g transform="translate(310 0)"><ellipse cx="50" cy="25" rx="50" ry="25" fill="rgb(35,169,225)" stroke="#23a9e1" stroke-width="2" stroke-linecap="round" stroke-linejoin="round" stroke-dasharray="0 0"/></g><g transform="translate(323, 15) rotate(0, 37, 10)" width="74" height="20"><text text-decoration="underline" x="0" fill="#ffffff" font-size="11pt" font-family="lt_regular"  y="16">Passport_id</text><text text-decoration="none" x="74" fill="#4b4b4b" font-size="10pt" font-family="noto_regular"  y="16"></text></g></g><g id="UbyBjCQqqfi"><g transform="translate(200 0)"><ellipse cx="50" cy="25" rx="50" ry="25" fill="rgb(35,169,225)" stroke="#23a9e1" stroke-width="2" stroke-linecap="round" stroke-linejoin="round" stroke-dasharray="0 0"/></g><g transform="translate(231, 15) rotate(0, 19, 10)" width="38" height="20"><text text-decoration="none" x="0" fill="#ffffff" font-size="11pt" font-family="lt_regular"  y="16">Name</text><text text-decoration="none" x="38" fill="#4b4b4b" font-size="10pt" font-family="noto_regular"  y="16"></text></g></g><g id="faVEDda8J8S"><g transform="translate(150 60)"><ellipse cx="50" cy="25" rx="50" ry="25" fill="rgb(35,169,225)" stroke="#23a9e1" stroke-width="2" stroke-linecap="round" stroke-linejoin="round" stroke-dasharray="0 0"/></g><g transform="translate(182.5, 75) rotate(0, 17.5, 10)" width="35" height="20"><text text-decoration="none" x="0" fill="#ffffff" font-size="11pt" font-family="lt_regular"  y="16">Email</text><text text-decoration="none" x="36" fill="#4b4b4b" font-size="10pt" font-family="noto_regular"  y="16"></text></g></g><g id="n6gLami9UHa"><g transform="translate(150 120)"><ellipse cx="50" cy="25" rx="50" ry="25" fill="rgb(35,169,225)" stroke="#23a9e1" stroke-width="2" stroke-linecap="round" stroke-linejoin="round" stroke-dasharray="0 0"/></g><g transform="translate(161.5, 135) rotate(0, 38.5, 10)" width="77" height="20"><text text-decoration="none" x="0" fill="#ffffff" font-size="11pt" font-family="lt_regular"  y="16">Contact_No</text><text text-decoration="none" x="78" fill="#4b4b4b" font-size="10pt" font-family="noto_regular"  y="16"></text></g></g><g id="LxJ6NR4MeR5"><g><path d="M 360,50 L 350,100" fill="none" stroke="#9A9A9A" stroke-width="2" stroke-linecap="round" stroke-linejoin="round"/></g></g><g id="12Eakmdcexk"><g><path d="M 290,40 L 350,100" fill="none" stroke="#9A9A9A" stroke-width="2" stroke-linecap="round" stroke-linejoin="round"/></g></g><g id="rXA3dODwYaA"><g><path d="M 250,85 L 300,125" fill="none" stroke="#9A9A9A" stroke-width="2" stroke-linecap="round" stroke-linejoin="round"/></g></g><g id="fbJj2nQnbcT"><g><path d="M 250,145 L 300,125" fill="none" stroke="#9A9A9A" stroke-width="2" stroke-linecap="round" stroke-linejoin="round"/></g></g><g id="pcda7yeGwxV"><mask id="93f27" x="386" y="111" width="128" height="28" maskUnits="userSpaceOnUse"><rect x="386" y="111" width="128" height="28" fill="white" /><rect x="423" y="112" width="14" height="26" fill="black" /></mask><g mask="url(#93f27)"><path d="M 400,125 L 500,125" fill="none" stroke="#9A9A9A" stroke-width="2" stroke-linecap="round" stroke-linejoin="round"/></g><g transform="translate(426, 115)" width="8" height="20"><text text-decoration="none" x="0" fill="#4b4b4b" font-size="11pt" font-family="lt_regular"  y="16">1</text><text text-decoration="none" x="9" fill="#4b4b4b" font-size="10pt" font-family="noto_regular"  y="16"></text></g></g><g id="Bs0SfHSjfzG"><mask id="42a24" x="586" y="111" width="128" height="28" maskUnits="userSpaceOnUse"><rect x="586" y="111" width="128" height="28" fill="white" /><rect x="661.5" y="112" width="17" height="26" fill="black" /></mask><g mask="url(#42a24)"><path d="M 600,125 L 700,125" fill="none" stroke="#9A9A9A" stroke-width="2" stroke-linecap="round" stroke-linejoin="round"/></g><g transform="translate(664.5, 115)" width="11" height="20"><text text-decoration="none" x="0" fill="#4b4b4b" font-size="11pt" font-family="lt_regular"  y="16">N</text><text text-decoration="none" x="11" fill="#4b4b4b" font-size="10pt" font-family="noto_regular"  y="16"></text></g></g><g id="nvHRlwmbxpp"><g transform="translate(700 -80)"><ellipse cx="50" cy="25" rx="50" ry="25" fill="rgb(35,169,225)" stroke="#23a9e1" stroke-width="2" stroke-linecap="round" stroke-linejoin="round" stroke-dasharray="0 0"/></g><g transform="translate(720.5, -65) rotate(0, 29.5, 10)" width="59" height="20"><text text-decoration="underline" x="0" fill="#ffffff" font-size="11pt" font-family="lt_regular"  y="16">Oder_No</text><text text-decoration="none" x="60" fill="#4b4b4b" font-size="10pt" font-family="noto_regular"  y="16"></text></g></g><g id="ExAqZvmaECQ"><g transform="translate(600 -60)"><ellipse cx="50" cy="25" rx="50" ry="25" fill="rgb(35,169,225)" stroke="#23a9e1" stroke-width="2" stroke-linecap="round" stroke-linejoin="round" stroke-dasharray="0 0"/></g><g transform="translate(617.5, -45) rotate(0, 32.5, 10)" width="65" height="20"><text text-decoration="none" x="0" fill="#ffffff" font-size="11pt" font-family="lt_regular"  y="16">Ticket_No</text><text text-decoration="none" x="68" fill="#4b4b4b" font-size="10pt" font-family="noto_regular"  y="16"></text></g></g><g id="ODO1pAV7MuK"><g transform="translate(600 0)"><ellipse cx="50" cy="25" rx="50" ry="25" fill="rgb(35,169,225)" stroke="#23a9e1" stroke-width="2" stroke-linecap="round" stroke-linejoin="round" stroke-dasharray="0 0"/></g><g transform="translate(634.5, 15) rotate(0, 15.5, 10)" width="31" height="20"><text text-decoration="none" x="0" fill="#ffffff" font-size="11pt" font-family="lt_regular"  y="16">Date</text><text text-decoration="none" x="31" fill="#4b4b4b" font-size="10pt" font-family="noto_regular"  y="16"></text></g></g><g id="S5T8ohOje9n"><g transform="translate(800 -60)"><ellipse cx="50" cy="25" rx="50" ry="25" fill="rgb(35,169,225)" stroke="#23a9e1" stroke-width="2" stroke-linecap="round" stroke-linejoin="round" stroke-dasharray="0 0"/></g><g transform="translate(834, -45) rotate(0, 16, 10)" width="32" height="20"><text text-decoration="none" x="0" fill="#ffffff" font-size="11pt" font-family="lt_regular"  y="16">Time</text><text text-decoration="none" x="33" fill="#4b4b4b" font-size="10pt" font-family="noto_regular"  y="16"></text></g></g><g id="c1rdajfVtfD"><g transform="translate(800 0)"><ellipse cx="50" cy="25" rx="50" ry="25" fill="rgb(35,169,225)" stroke="#23a9e1" stroke-width="2" stroke-linecap="round" stroke-linejoin="round" stroke-dasharray="0 0"/></g><g transform="translate(833.5, 15) rotate(0, 16.5, 10)" width="33" height="20"><text text-decoration="none" x="0" fill="#ffffff" font-size="11pt" font-family="lt_regular"  y="16">Class</text><text text-decoration="none" x="33" fill="#4b4b4b" font-size="10pt" font-family="noto_regular"  y="16"></text></g></g><g id="3ik303OsbLc"><g><path d="M 750,-30 L 750,100" fill="none" stroke="#9A9A9A" stroke-width="2" stroke-linecap="round" stroke-linejoin="round"/></g></g><g id="vevxD716Pp7"><g><path d="M 690,40 L 750,100" fill="none" stroke="#9A9A9A" stroke-width="2" stroke-linecap="round" stroke-linejoin="round"/></g></g><g id="cklSlJEDYxN"><g><path d="M 690,-20 L 750,100" fill="none" stroke="#9A9A9A" stroke-width="2" stroke-linecap="round" stroke-linejoin="round"/></g></g><g id="Cmu6cIYpNHf"><g><path d="M 810,-20 L 750,100" fill="none" stroke="#9A9A9A" stroke-width="2" stroke-linecap="round" stroke-linejoin="round"/></g></g><g id="UvWEv90Oxh0"><g><path d="M 810,40 L 750,100" fill="none" stroke="#9A9A9A" stroke-width="2" stroke-linecap="round" stroke-linejoin="round"/></g></g><g id="9aXkkx8Oxqr"><mask id="35c47" x="786" y="111" width="178" height="28" maskUnits="userSpaceOnUse"><rect x="786" y="111" width="178" height="28" fill="white" /><rect x="821.5" y="112" width="17" height="26" fill="black" /></mask><g mask="url(#35c47)"><path d="M 800,125 L 950,125" fill="none" stroke="#9A9A9A" stroke-width="2" stroke-linecap="round" stroke-linejoin="round"/></g><g transform="translate(824.5, 115)" width="11" height="20"><text text-decoration="none" x="0" fill="#4b4b4b" font-size="11pt" font-family="lt_regular"  y="16">N</text><text text-decoration="none" x="11" fill="#4b4b4b" font-size="10pt" font-family="noto_regular"  y="16"></text></g></g><g id="VfQgt2C1Gn5"><g transform="translate(950 0)"><ellipse cx="50" cy="25" rx="50" ry="25" fill="rgb(35,169,225)" stroke="#23a9e1" stroke-width="2" stroke-linecap="round" stroke-linejoin="round" stroke-dasharray="0 0"/></g><g transform="translate(987.5, 15) rotate(0, 12.5, 10)" width="25" height="20"><text text-decoration="none" x="0" fill="#ffffff" font-size="11pt" font-family="lt_regular"  y="16">Qty</text><text text-decoration="none" x="25" fill="#4b4b4b" font-size="10pt" font-family="noto_regular"  y="16"></text></g></g><g id="MbzdhQXLu0A"><g transform="translate(950 200)"><ellipse cx="50" cy="25" rx="50" ry="25" fill="rgb(35,169,225)" stroke="#23a9e1" stroke-width="2" stroke-linecap="round" stroke-linejoin="round" stroke-dasharray="0 0"/></g><g transform="translate(968, 215) rotate(0, 32, 10)" width="64" height="20"><text text-decoration="none" x="0" fill="#ffffff" font-size="11pt" font-family="lt_regular"  y="16">Ammount</text><text text-decoration="none" x="64" fill="#4b4b4b" font-size="10pt" font-family="noto_regular"  y="16"></text></g></g><g id="Igrh0Ezj3wC"><g><path d="M 1000,50 L 1000,100" fill="none" stroke="#9A9A9A" stroke-width="2" stroke-linecap="round" stroke-linejoin="round"/></g></g><g id="IFeYx12ZUIr"><g><path d="M 1000,200 L 1000,150" fill="none" stroke="#9A9A9A" stroke-width="2" stroke-linecap="round" stroke-linejoin="round"/></g></g><g id="W5cyPWgRZiy"><mask id="3a11e" x="1036" y="111" width="128" height="28" maskUnits="userSpaceOnUse"><rect x="1036" y="111" width="128" height="28" fill="white" /><rect x="1111.5" y="112" width="17" height="26" fill="black" /></mask><g mask="url(#3a11e)"><path d="M 1050,125 L 1150,125" fill="none" stroke="#9A9A9A" stroke-width="2" stroke-linecap="round" stroke-linejoin="round"/></g><g transform="translate(1114.5, 115)" width="11" height="20"><text text-decoration="none" x="0" fill="#4b4b4b" font-size="11pt" font-family="lt_regular"  y="16">N</text><text text-decoration="none" x="11" fill="#4b4b4b" font-size="10pt" font-family="noto_regular"  y="16"></text></g></g><g id="KD35Zob2gDg"><mask id="dbafc" x="1236" y="111" width="128" height="28" maskUnits="userSpaceOnUse"><rect x="1236" y="111" width="128" height="28" fill="white" /><rect x="1271.5" y="112" width="17" height="26" fill="black" /></mask><g mask="url(#dbafc)"><path d="M 1250,125 L 1350,125" fill="none" stroke="#9A9A9A" stroke-width="2" stroke-linecap="round" stroke-linejoin="round"/></g><g transform="translate(1274.5, 115)" width="11" height="20"><text text-decoration="none" x="0" fill="#4b4b4b" font-size="11pt" font-family="lt_regular"  y="16">N</text><text text-decoration="none" x="11" fill="#4b4b4b" font-size="10pt" font-family="noto_regular"  y="16"></text></g></g><g id="kzOOkQAN1ro"><g transform="translate(1150 -50)"><ellipse cx="50" cy="25" rx="50" ry="25" fill="rgb(35,169,225)" stroke="#23a9e1" stroke-width="2" stroke-linecap="round" stroke-linejoin="round" stroke-dasharray="0 0"/></g><g transform="translate(1174.5, -35) rotate(0, 25.5, 10)" width="51" height="20"><text text-decoration="underline" x="0" fill="#ffffff" font-size="11pt" font-family="lt_regular"  y="16">Food_id</text><text text-decoration="none" x="53" fill="#4b4b4b" font-size="10pt" font-family="noto_regular"  y="16"></text></g></g><g id="rUFmEA6EG5N"><g transform="translate(1090 0)"><ellipse cx="50" cy="25" rx="50" ry="25" fill="rgb(35,169,225)" stroke="#23a9e1" stroke-width="2" stroke-linecap="round" stroke-linejoin="round" stroke-dasharray="0 0"/></g><g transform="translate(1121, 15) rotate(0, 19, 10)" width="38" height="20"><text text-decoration="none" x="0" fill="#ffffff" font-size="11pt" font-family="lt_regular"  y="16">Name</text><text text-decoration="none" x="38" fill="#4b4b4b" font-size="10pt" font-family="noto_regular"  y="16"></text></g></g><g id="90XTKsvoq78"><g transform="translate(1250 0)"><ellipse cx="50" cy="25" rx="50" ry="25" fill="rgb(35,169,225)" stroke="#23a9e1" stroke-width="2" stroke-linecap="round" stroke-linejoin="round" stroke-dasharray="0 0"/></g><g transform="translate(1284, 15) rotate(0, 16, 10)" width="32" height="20"><text text-decoration="none" x="0" fill="#ffffff" font-size="11pt" font-family="lt_regular"  y="16">Price</text><text text-decoration="none" x="33" fill="#4b4b4b" font-size="10pt" font-family="noto_regular"  y="16"></text></g></g><g id="chCakavZedP"><g transform="translate(1090 200)"><ellipse cx="50" cy="25" rx="50" ry="25" fill="rgb(35,169,225)" stroke="#23a9e1" stroke-width="2" stroke-linecap="round" stroke-linejoin="round" stroke-dasharray="0 0"/></g><g transform="translate(1103, 215) rotate(0, 37, 10)" width="74" height="20"><text text-decoration="none" x="0" fill="#ffffff" font-size="11pt" font-family="lt_regular"  y="16">Description</text><text text-decoration="none" x="75" fill="#4b4b4b" font-size="10pt" font-family="noto_regular"  y="16"></text></g></g><g id="175sHnTD6xP"><g transform="translate(1250 200)"><ellipse cx="50" cy="25" rx="50" ry="25" fill="rgb(35,169,225)" stroke="#23a9e1" stroke-width="2" stroke-linecap="round" stroke-linejoin="round" stroke-dasharray="0 0"/></g><g transform="translate(1259, 215) rotate(0, 41, 10)" width="82" height="20"><text text-decoration="none" x="0" fill="#ffffff" font-size="11pt" font-family="lt_regular"  y="16">Specification</text><text text-decoration="none" x="84" fill="#4b4b4b" font-size="10pt" font-family="noto_regular"  y="16"></text></g></g><g id="Bmib0YX67nO"><g transform="translate(1150 250)"><ellipse cx="50" cy="25" rx="50" ry="25" fill="rgb(35,169,225)" stroke="#23a9e1" stroke-width="2" stroke-linecap="round" stroke-linejoin="round" stroke-dasharray="0 0"/></g><g transform="translate(1187.5, 265) rotate(0, 12.5, 10)" width="25" height="20"><text text-decoration="none" x="0" fill="#ffffff" font-size="11pt" font-family="lt_regular"  y="16">Qty</text><text text-decoration="none" x="25" fill="#4b4b4b" font-size="10pt" font-family="noto_regular"  y="16"></text></g></g><g id="UV11GS1wRaT"><g><path d="M 1200,0 L 1200,100" fill="none" stroke="#9A9A9A" stroke-width="2" stroke-linecap="round" stroke-linejoin="round"/></g></g><g id="0X2Kj0bahEC"><g><path d="M 1160,48 L 1200,100" fill="none" stroke="#9A9A9A" stroke-width="2" stroke-linecap="round" stroke-linejoin="round"/></g></g><g id="fFEq8dcan9V"><g><path d="M 1260,40 L 1200,100" fill="none" stroke="#9A9A9A" stroke-width="2" stroke-linecap="round" stroke-linejoin="round"/></g></g><g id="M2AvzH0m8pD"><g><path d="M 1160,202 L 1200,150" fill="none" stroke="#9A9A9A" stroke-width="2" stroke-linecap="round" stroke-linejoin="round"/></g></g><g id="vHIMPQDMUQf"><g><path d="M 1200,250 L 1200,150" fill="none" stroke="#23a9e1" stroke-width="2" stroke-linecap="round" stroke-linejoin="round" stroke-dasharray="0 0"/></g></g><g id="WnIHJUEEfnO"><g><path d="M 1260,210 L 1200,150" fill="none" stroke="#9A9A9A" stroke-width="2" stroke-linecap="round" stroke-linejoin="round"/></g></g><g id="leNX2WbJy9d"><g transform="translate(550 300)"><path d="M 99.99999999999999,25 L 49.99999999999999,50 L 0,25 L 49.99999999999999,0 L 99.99999999999999,25 L 99.99999999999999,25 Z" fill="rgb(182,182,179)" stroke="#b6b6b3" stroke-width="2" stroke-linecap="round" stroke-linejoin="round" stroke-dasharray="0 0"/></g><g transform="translate(583.5, 315) rotate(0, 16.5, 10)" width="33" height="20"><text text-decoration="none" x="0" fill="#ffffff" font-size="11pt" font-family="lt_regular"  y="16">Have</text><text text-decoration="none" x="34" fill="#4b4b4b" font-size="10pt" font-family="noto_regular"  y="16"></text></g></g><g id="WX4hsU4hjvf"><g transform="translate(850 300)"><path d="M 99.99999999999999,25 L 49.99999999999999,50 L 0,25 L 49.99999999999999,0 L 99.99999999999999,25 L 99.99999999999999,25 Z" fill="rgb(182,182,179)" stroke="#b6b6b3" stroke-width="2" stroke-linecap="round" stroke-linejoin="round" stroke-dasharray="0 0"/></g><g transform="translate(889, 315) rotate(0, 11, 10)" width="22" height="20"><text text-decoration="none" x="0.5" fill="#ffffff" font-size="11pt" font-family="lt_regular"  y="16">has</text><text text-decoration="none" x="21.5" fill="#4b4b4b" font-size="10pt" font-family="noto_regular"  y="16"></text></g></g><g id="Ea6ygTdwoZ0"><g transform="translate(550 400)"><rect x="0" y="0" width="100" height="50" fill="rgb(89,88,87)" stroke="#595857" stroke-width="2" stroke-linecap="round" stroke-linejoin="round" stroke-dasharray="0 0"/></g><g transform="translate(572, 415) rotate(0, 28, 10)" width="56" height="20"><text text-decoration="none" x="0" fill="#ffffff" font-size="11pt" font-family="lt_regular"  y="16">Payment</text><text text-decoration="none" x="57" fill="#4b4b4b" font-size="10pt" font-family="noto_regular"  y="16"></text></g></g><g id="hhQeBOxxL61"><g transform="translate(850 400)"><rect x="0" y="0" width="100" height="50" fill="rgb(89,88,87)" stroke="#595857" stroke-width="2" stroke-linecap="round" stroke-linejoin="round" stroke-dasharray="0 0"/></g><g transform="translate(879, 415) rotate(0, 21, 10)" width="42" height="20"><text text-decoration="none" x="0" fill="#ffffff" font-size="11pt" font-family="lt_regular"  y="16">Flights</text><text text-decoration="none" x="43" fill="#4b4b4b" font-size="10pt" font-family="noto_regular"  y="16"></text></g></g><g id="QgceBG5Ipxb"><mask id="ff797" x="586" y="136" width="178" height="178" maskUnits="userSpaceOnUse"><rect x="586" y="136" width="178" height="178" fill="white" /><rect x="721.7867965644036" y="158.21320343559643" width="14" height="26" fill="black" /></mask><g mask="url(#ff797)"><path d="M 750,150 L 600,300" fill="none" stroke="#9A9A9A" stroke-width="2" stroke-linecap="round" stroke-linejoin="round"/></g><g transform="translate(724.7867965644036, 161.21320343559643)" width="8" height="20"><text text-decoration="none" x="0" fill="#4b4b4b" font-size="11pt" font-family="lt_regular"  y="16">1</text><text text-decoration="none" x="9" fill="#4b4b4b" font-size="10pt" font-family="noto_regular"  y="16"></text></g></g><g id="6iHPDvt0N14"><mask id="2bf12" x="586" y="336" width="28" height="78" maskUnits="userSpaceOnUse"><rect x="586" y="336" width="28" height="78" fill="white" /><rect x="593" y="362" width="14" height="26" fill="black" /></mask><g mask="url(#2bf12)"><path d="M 600,350 L 600,400" fill="none" stroke="#9A9A9A" stroke-width="2" stroke-linecap="round" stroke-linejoin="round"/></g><g transform="translate(596, 365)" width="8" height="20"><text text-decoration="none" x="0" fill="#4b4b4b" font-size="11pt" font-family="lt_regular"  y="16">1</text><text text-decoration="none" x="9" fill="#4b4b4b" font-size="10pt" font-family="noto_regular"  y="16"></text></g></g><g id="DoC0OTqIf1d"><mask id="bb22c" x="736" y="136" width="178" height="178" maskUnits="userSpaceOnUse"><rect x="736" y="136" width="178" height="178" fill="white" /><rect x="763.2132034355964" y="158.71320343559643" width="16" height="25" fill="black" /></mask><g mask="url(#bb22c)"><path d="M 750,150 L 900,300" fill="none" stroke="#9A9A9A" stroke-width="2" stroke-linecap="round" stroke-linejoin="round"/></g><g transform="translate(766.2132034355964, 161.71320343559643)" width="10" height="19"><text text-decoration="none" x="0" fill="#4b4b4b" font-size="10pt" font-family="lt_regular"  y="15">N</text><text text-decoration="none" x="10" fill="#4b4b4b" font-size="10pt" font-family="noto_regular"  y="15"></text></g></g><g id="Fjg3wFvpmVG"><mask id="ec735" x="886" y="336" width="28" height="78" maskUnits="userSpaceOnUse"><rect x="886" y="336" width="28" height="78" fill="white" /><rect x="893" y="362" width="14" height="26" fill="black" /></mask><g mask="url(#ec735)"><path d="M 900,350 L 900,400" fill="none" stroke="#9A9A9A" stroke-width="2" stroke-linecap="round" stroke-linejoin="round"/></g><g transform="translate(896, 365)" width="8" height="20"><text text-decoration="none" x="0" fill="#4b4b4b" font-size="11pt" font-family="lt_regular"  y="16">1</text><text text-decoration="none" x="9" fill="#4b4b4b" font-size="10pt" font-family="noto_regular"  y="16"></text></g></g><g id="NuROVBxNlMK"><g transform="translate(420 500)"><ellipse cx="50" cy="25" rx="50" ry="25" fill="rgb(35,169,225)" stroke="#23a9e1" stroke-width="2" stroke-linecap="round" stroke-linejoin="round" stroke-dasharray="0 0"/></g><g transform="translate(442, 515) rotate(0, 28, 10)" width="56" height="20"><text text-decoration="none" x="0" fill="#ffffff" font-size="11pt" font-family="lt_regular"  y="16">NetPrice</text><text text-decoration="none" x="57" fill="#4b4b4b" font-size="10pt" font-family="noto_regular"  y="16"></text></g></g><g id="ojKlldvi03X"><g transform="translate(550 500)"><ellipse cx="50" cy="25" rx="50" ry="25" fill="rgb(35,169,225)" stroke="#23a9e1" stroke-width="2" stroke-linecap="round" stroke-linejoin="round" stroke-dasharray="0 0"/></g><g transform="translate(570.5, 515) rotate(0, 29.5, 10)" width="59" height="20"><text text-decoration="none" x="0" fill="#ffffff" font-size="11pt" font-family="lt_regular"  y="16">CashPaid</text><text text-decoration="none" x="59" fill="#4b4b4b" font-size="10pt" font-family="noto_regular"  y="16"></text></g></g><g id="uQZQdbLIXBP"><g transform="translate(400 400)"><ellipse cx="49.99999999999999" cy="25" rx="49.99999999999999" ry="25" fill="rgb(35,169,225)" stroke="#23a9e1" stroke-width="2" stroke-linecap="round" stroke-linejoin="round" stroke-dasharray="0 0"/></g><g transform="translate(412.5, 405) rotate(0, 37.5, 20)" width="75" height="40"><text text-decoration="underline" x="37.5" fill="#ffffff" font-size="11pt" font-family="lt_regular"  y="16"></text><text text-decoration="underline" x="0" fill="#ffffff" font-size="11pt" font-family="lt_regular"  y="36">Payment_id</text><text text-decoration="none" x="76" fill="#4b4b4b" font-size="10pt" font-family="noto_regular"  y="36"></text></g></g><g id="rBjGaCRYzrb"><g><path d="M 500,425 L 550,425" fill="none" stroke="#9A9A9A" stroke-width="2" stroke-linecap="round" stroke-linejoin="round"/></g></g><g id="eAtQgNzj0EH"><g><path d="M 490,502 L 550,425" fill="none" stroke="#9A9A9A" stroke-width="2" stroke-linecap="round" stroke-linejoin="round"/></g></g><g id="gvdXoyLMRRu"><g><path d="M 600,500 L 600,450" fill="none" stroke="#9A9A9A" stroke-width="2" stroke-linecap="round" stroke-linejoin="round"/></g></g><g id="pgHVVpSkmts"><g transform="translate(920 550)"><ellipse cx="50" cy="25" rx="50" ry="25" fill="rgb(35,169,225)" stroke="#23a9e1" stroke-width="2" stroke-linecap="round" stroke-linejoin="round" stroke-dasharray="0 0"/></g><g transform="translate(939, 565) rotate(0, 31, 10)" width="62" height="20"><text text-decoration="underline" x="0" fill="#ffffff" font-size="11pt" font-family="lt_regular"  y="16">Flight_No</text><text text-decoration="none" x="64" fill="#4b4b4b" font-size="10pt" font-family="noto_regular"  y="16"></text></g></g><g id="Yj8hLiXindz"><g transform="translate(790 550)"><ellipse cx="62" cy="25" rx="62" ry="25" fill="rgb(35,169,225)" stroke="#23a9e1" stroke-width="2" stroke-linecap="round" stroke-linejoin="round" stroke-dasharray="0 0"/></g><g transform="translate(800, 565) rotate(0, 52, 10)" width="104" height="20"><text text-decoration="none" x="0" fill="#ffffff" font-size="11pt" font-family="lt_regular"  y="16">Departure_Time</text><text text-decoration="none" x="105" fill="#4b4b4b" font-size="10pt" font-family="noto_regular"  y="16"></text></g></g><g id="feIcAvNXWub"><g transform="translate(950 490)"><ellipse cx="50" cy="25" rx="50" ry="25" fill="rgb(35,169,225)" stroke="#23a9e1" stroke-width="2" stroke-linecap="round" stroke-linejoin="round" stroke-dasharray="0 0"/></g><g transform="translate(979, 505) rotate(0, 21, 10)" width="42" height="20"><text text-decoration="none" x="0" fill="#ffffff" font-size="11pt" font-family="lt_regular"  y="16">Arrival</text><text text-decoration="none" x="43" fill="#4b4b4b" font-size="10pt" font-family="noto_regular"  y="16"></text></g></g><g id="zE8mAazRHEo"><g transform="translate(750 490)"><ellipse cx="50" cy="25" rx="50" ry="25" fill="rgb(35,169,225)" stroke="#23a9e1" stroke-width="2" stroke-linecap="round" stroke-linejoin="round" stroke-dasharray="0 0"/></g><g transform="translate(767, 505) rotate(0, 33, 10)" width="66" height="20"><text text-decoration="none" x="0.5" fill="#ffffff" font-size="11pt" font-family="lt_regular"  y="16">Departure</text><text text-decoration="none" x="65.5" fill="#4b4b4b" font-size="10pt" font-family="noto_regular"  y="16"></text></g></g><g id="Vu9scTnV55X"><g><path d="M 840,500 L 900,450" fill="none" stroke="#9A9A9A" stroke-width="2" stroke-linecap="round" stroke-linejoin="round"/></g></g><g id="JxUFYjLa1Tt"><g><path d="M 877,552 L 900,450" fill="none" stroke="#9A9A9A" stroke-width="2" stroke-linecap="round" stroke-linejoin="round"/></g></g><g id="cw9rkSfaeNQ"><g><path d="M 950,552 L 900,450" fill="none" stroke="#9A9A9A" stroke-width="2" stroke-linecap="round" stroke-linejoin="round"/></g></g><g id="38Ha5uLPeUN"><g><path d="M 960,500 L 900,450" fill="none" stroke="#9A9A9A" stroke-width="2" stroke-linecap="round" stroke-linejoin="round"/></g></g><g id="Sof0sSKcSpo"><g transform="translate(1500 200)"><rect x="0" y="0" width="100" height="50" fill="rgb(89,88,87)" stroke="#595857" stroke-width="2" stroke-linecap="round" stroke-linejoin="round" stroke-dasharray="0 0"/></g><g transform="translate(1520.5, 205) rotate(0, 29.5, 20)" width="59" height="40"><text text-decoration="none" x="17.5" fill="#ffffff" font-size="11pt" font-family="lt_regular"  y="16">Sub&#160;</text><text text-decoration="none" x="0" fill="#ffffff" font-size="11pt" font-family="lt_regular"  y="36">Category</text><text text-decoration="none" x="60" fill="#4b4b4b" font-size="10pt" font-family="noto_regular"  y="36"></text></g></g><g id="g5wyLnWwQzf"><mask id="ffd9b" x="1436" y="111" width="128" height="103" maskUnits="userSpaceOnUse"><rect x="1436" y="111" width="128" height="103" fill="white" /><rect x="1543" y="157" width="14" height="26" fill="black" /></mask><g mask="url(#ffd9b)"><path d="M 1450,125 L 1540,125 Q 1550,125 1550,135 L 1550,200" fill="none" stroke="#9A9A9A" stroke-width="2" stroke-linecap="round" stroke-linejoin="round"/></g><g transform="translate(1546, 160)" width="8" height="20"><text text-decoration="none" x="0" fill="#4b4b4b" font-size="11pt" font-family="lt_regular"  y="16">1</text><text text-decoration="none" x="9" fill="#4b4b4b" font-size="10pt" font-family="noto_regular"  y="16"></text></g></g><g id="PmAyPhu0REG"><g transform="translate(1650 170)"><ellipse cx="50" cy="25" rx="50" ry="25" fill="rgb(35,169,225)" stroke="#23a9e1" stroke-width="2" stroke-linecap="round" stroke-linejoin="round" stroke-dasharray="0 0"/></g><g transform="translate(1682, 185) rotate(0, 18, 10)" width="36" height="20"><text text-decoration="underline" x="0" fill="#ffffff" font-size="11pt" font-family="lt_regular"  y="16">SC_id</text><text text-decoration="none" x="37" fill="#4b4b4b" font-size="10pt" font-family="noto_regular"  y="16"></text></g></g><g id="YCeXHJDNKbQ"><g transform="translate(1650 230)"><ellipse cx="50" cy="25" rx="50" ry="25" fill="rgb(35,169,225)" stroke="#23a9e1" stroke-width="2" stroke-linecap="round" stroke-linejoin="round" stroke-dasharray="0 0"/></g><g transform="translate(1668.5, 245) rotate(0, 31.5, 10)" width="63" height="20"><text text-decoration="none" x="0" fill="#ffffff" font-size="11pt" font-family="lt_regular"  y="16">SC_Name</text><text text-decoration="none" x="63" fill="#4b4b4b" font-size="10pt" font-family="noto_regular"  y="16"></text></g></g><g id="NZcYnLPP2DY"><g><path d="M 1600,225 L 1625,210 L 1650,195" fill="none" stroke="#9A9A9A" stroke-width="2" stroke-linecap="round" stroke-linejoin="round"/></g></g><g id="4yNxfqpsNfm"><g><path d="M 1600,225 L 1625,240 L 1650,255" fill="none" stroke="#9A9A9A" stroke-width="2" stroke-linecap="round" stroke-linejoin="round"/></g></g><g id="InyAqfJLGt6"><g transform="translate(1500 350)"><path d="M 99.99999999999999,25 L 49.99999999999999,50 L 0,25 L 49.99999999999999,0 L 99.99999999999999,25 L 99.99999999999999,25 Z" fill="rgb(182,182,179)" stroke="#b6b6b3" stroke-width="2" stroke-linecap="round" stroke-linejoin="round" stroke-dasharray="0 0"/></g><g transform="translate(1515.5, 365) rotate(0, 34.5, 10)" width="69" height="20"><text text-decoration="none" x="8" fill="#ffffff" font-size="11pt" font-family="lt_regular"  y="16">Belongs&#160;</text><text text-decoration="none" x="27.5" fill="#ffffff" font-size="11pt" font-family="lt_regular"  y="36">to</text><text text-decoration="none" x="41.5" fill="#4b4b4b" font-size="10pt" font-family="noto_regular"  y="36"></text></g></g><g id="U2wSj3bDsik"><g transform="translate(1500 500)"><rect x="0" y="0" width="100" height="50" fill="rgb(89,88,87)" stroke="#595857" stroke-width="2" stroke-linecap="round" stroke-linejoin="round" stroke-dasharray="0 0"/></g><g transform="translate(1520.5, 515) rotate(0, 29.5, 10)" width="59" height="20"><text text-decoration="none" x="0" fill="#ffffff" font-size="11pt" font-family="lt_regular"  y="16">Category</text><text text-decoration="none" x="60" fill="#4b4b4b" font-size="10pt" font-family="noto_regular"  y="16"></text></g></g><g id="vwPQfbIkXWF"><mask id="011c3" x="1536" y="386" width="28" height="128" maskUnits="userSpaceOnUse"><rect x="1536" y="386" width="28" height="128" fill="white" /><rect x="1543" y="457" width="14" height="26" fill="black" /></mask><g mask="url(#011c3)"><path d="M 1550,500 L 1550,400" fill="none" stroke="#9A9A9A" stroke-width="2" stroke-linecap="round" stroke-linejoin="round"/></g><g transform="translate(1546, 460)" width="8" height="20"><text text-decoration="none" x="0" fill="#4b4b4b" font-size="11pt" font-family="lt_regular"  y="16">1</text><text text-decoration="none" x="9" fill="#4b4b4b" font-size="10pt" font-family="noto_regular"  y="16"></text></g></g><g id="39QwN3syZFz"><mask id="85c8c" x="1536" y="236" width="28" height="128" maskUnits="userSpaceOnUse"><rect x="1536" y="236" width="28" height="128" fill="white" /><rect x="1541.5" y="267" width="17" height="26" fill="black" /></mask><g mask="url(#85c8c)"><path d="M 1550,250 L 1550,350" fill="none" stroke="#9A9A9A" stroke-width="2" stroke-linecap="round" stroke-linejoin="round"/></g><g transform="translate(1544.5, 270)" width="11" height="20"><text text-decoration="none" x="0" fill="#4b4b4b" font-size="11pt" font-family="lt_regular"  y="16">N</text><text text-decoration="none" x="11" fill="#4b4b4b" font-size="10pt" font-family="noto_regular"  y="16"></text></g></g><g id="qDMx414oKKi"><g transform="translate(1650 470)"><ellipse cx="50" cy="25" rx="50" ry="25" fill="rgb(35,169,225)" stroke="#23a9e1" stroke-width="2" stroke-linecap="round" stroke-linejoin="round" stroke-dasharray="0 0"/></g><g transform="translate(1686, 485) rotate(0, 14, 10)" width="28" height="20"><text text-decoration="underline" x="0" fill="#ffffff" font-size="11pt" font-family="lt_regular"  y="16">C_id</text><text text-decoration="none" x="29" fill="#4b4b4b" font-size="10pt" font-family="noto_regular"  y="16"></text></g></g><g id="Do9JtNlFhef"><g transform="translate(1650 530)"><ellipse cx="50" cy="25" rx="50" ry="25" fill="rgb(35,169,225)" stroke="#23a9e1" stroke-width="2" stroke-linecap="round" stroke-linejoin="round" stroke-dasharray="0 0"/></g><g transform="translate(1672.5, 545) rotate(0, 27.5, 10)" width="55" height="20"><text text-decoration="none" x="0" fill="#ffffff" font-size="11pt" font-family="lt_regular"  y="16">C_Name</text><text text-decoration="none" x="55" fill="#4b4b4b" font-size="10pt" font-family="noto_regular"  y="16"></text></g></g><g id="kUtNT6s8drn"><g><path d="M 1600,525 L 1625,510 L 1650,495" fill="none" stroke="#9A9A9A" stroke-width="2" stroke-linecap="round" stroke-linejoin="round"/></g></g><g id="YmXXgvz8sTD"><g><path d="M 1600,525 L 1625,540 L 1650,555" fill="none" stroke="#9A9A9A" stroke-width="2" stroke-linecap="round" stroke-linejoin="round"/></g></g><g id="Is1FC2qC59F"><g transform="translate(1150 400)"><path d="M 99.99999999999999,25 L 49.99999999999999,50 L 0,25 L 49.99999999999999,0 L 99.99999999999999,25 L 99.99999999999999,25 Z" fill="rgb(182,182,179)" stroke="#b6b6b3" stroke-width="2" stroke-linecap="round" stroke-linejoin="round" stroke-dasharray="0 0"/></g><g transform="translate(1185, 415) rotate(0, 15, 10)" width="30" height="20"><text text-decoration="none" x="0" fill="#ffffff" font-size="11pt" font-family="lt_regular"  y="16">have</text><text text-decoration="none" x="31" fill="#4b4b4b" font-size="10pt" font-family="noto_regular"  y="16"></text></g></g><g id="XbdjRBAGxjW"><g transform="translate(1150 500)"><rect x="0" y="0" width="100" height="50" fill="rgb(89,88,87)" stroke="#595857" stroke-width="2" stroke-linecap="round" stroke-linejoin="round" stroke-dasharray="0 0"/></g><g transform="translate(1169, 515) rotate(0, 31, 10)" width="62" height="20"><text text-decoration="none" x="0.5" fill="#ffffff" font-size="11pt" font-family="lt_regular"  y="16">Air&#160;</text><text text-decoration="none" x="23.5" fill="#ffffff" font-size="11pt" font-family="lt_regular"  y="16">Crafts</text><text text-decoration="none" x="61.5" fill="#4b4b4b" font-size="10pt" font-family="noto_regular"  y="16"></text></g></g><g id="LTRXbXIjEFs"><mask id="59b6b" x="936" y="411" width="228" height="28" maskUnits="userSpaceOnUse"><rect x="936" y="411" width="228" height="28" fill="white" /><rect x="971.5" y="412" width="17" height="26" fill="black" /></mask><g mask="url(#59b6b)"><path d="M 950,425 L 1150,425" fill="none" stroke="#9A9A9A" stroke-width="2" stroke-linecap="round" stroke-linejoin="round"/></g><g transform="translate(974.5, 415)" width="11" height="20"><text text-decoration="none" x="0" fill="#4b4b4b" font-size="11pt" font-family="lt_regular"  y="16">N</text><text text-decoration="none" x="11" fill="#4b4b4b" font-size="10pt" font-family="noto_regular"  y="16"></text></g></g><g id="vUe6Ax1bARb"><mask id="0732a" x="1186" y="436" width="28" height="78" maskUnits="userSpaceOnUse"><rect x="1186" y="436" width="28" height="78" fill="white" /><rect x="1193" y="462" width="14" height="26" fill="black" /></mask><g mask="url(#0732a)"><path d="M 1200,450 L 1200,500" fill="none" stroke="#9A9A9A" stroke-width="2" stroke-linecap="round" stroke-linejoin="round"/></g><g transform="translate(1196, 465)" width="8" height="20"><text text-decoration="none" x="0" fill="#4b4b4b" font-size="11pt" font-family="lt_regular"  y="16">1</text><text text-decoration="none" x="9" fill="#4b4b4b" font-size="10pt" font-family="noto_regular"  y="16"></text></g></g><g id="cjZRA2lBVRg"><g transform="translate(1300 480)"><ellipse cx="50" cy="25" rx="50" ry="25" fill="rgb(35,169,225)" stroke="#23a9e1" stroke-width="2" stroke-linecap="round" stroke-linejoin="round" stroke-dasharray="0 0"/></g><g transform="translate(1311.5, 495) rotate(0, 38.5, 10)" width="77" height="20"><text text-decoration="underline" x="0" fill="#ffffff" font-size="11pt" font-family="lt_regular"  y="16">AirCraft_No</text><text text-decoration="none" x="78" fill="#4b4b4b" font-size="10pt" font-family="noto_regular"  y="16"></text></g></g><g id="b9FQh6LiqXz"><g transform="translate(1300 540)"><ellipse cx="50" cy="25" rx="50" ry="25" fill="rgb(35,169,225)" stroke="#23a9e1" stroke-width="2" stroke-linecap="round" stroke-linejoin="round" stroke-dasharray="0 0"/></g><g transform="translate(1305.5, 555) rotate(0, 44.5, 10)" width="89" height="20"><text text-decoration="none" x="0" fill="#ffffff" font-size="11pt" font-family="lt_regular"  y="16">AirCraft_Type</text><text text-decoration="none" x="91" fill="#4b4b4b" font-size="10pt" font-family="noto_regular"  y="16"></text></g></g><g id="olG8g2BTEpV"><g><path d="M 1250,525 L 1275,515 L 1300,505" fill="none" stroke="#9A9A9A" stroke-width="2" stroke-linecap="round" stroke-linejoin="round"/></g></g><g id="UyQva7pN7Rw"><g><path d="M 1250,525 L 1275,545 L 1300,565" fill="none" stroke="#9A9A9A" stroke-width="2" stroke-linecap="round" stroke-linejoin="round"/></g></g><g id="0AXGZISdf2L"><g transform="translate(1150 649.9999999999999)"><path d="M 99.99999999999997,24.999999999999993 L 49.999999999999986,49.999999999999986 L 0,24.999999999999993 L 49.999999999999986,0 L 99.99999999999997,24.999999999999993 L 99.99999999999997,24.999999999999993 Z" fill="rgb(182,182,179)" stroke="#b6b6b3" stroke-width="2" stroke-linecap="round" stroke-linejoin="round" stroke-dasharray="0 0"/></g><g transform="translate(1185, 664.9999999999999) rotate(0, 15, 10)" width="30" height="20"><text text-decoration="none" x="0" fill="#ffffff" font-size="11pt" font-family="lt_regular"  y="16">have</text><text text-decoration="none" x="31" fill="#4b4b4b" font-size="10pt" font-family="noto_regular"  y="16"></text></g></g><g id="r20JXcFcUTq"><g transform="translate(1150 800)"><rect x="0" y="0" width="100" height="50" fill="rgb(89,88,87)" stroke="#595857" stroke-width="2" stroke-linecap="round" stroke-linejoin="round" stroke-dasharray="0 0"/></g><g transform="translate(1172, 815) rotate(0, 28, 10)" width="56" height="20"><text text-decoration="none" x="18.5" fill="#ffffff" font-size="11pt" font-family="lt_regular"  y="16">Air&#160;</text><text text-decoration="none" x="11" fill="#ffffff" font-size="11pt" font-family="lt_regular"  y="36">Lines</text><text text-decoration="none" x="45" fill="#4b4b4b" font-size="10pt" font-family="noto_regular"  y="36"></text></g></g><g id="WagbZw9MLyw"><mask id="11f7b" x="1186" y="536" width="28" height="128" maskUnits="userSpaceOnUse"><rect x="1186" y="536" width="28" height="128" fill="white" /><rect x="1191.5" y="567" width="17" height="26" fill="black" /></mask><g mask="url(#11f7b)"><path d="M 1200,550 L 1200,650" fill="none" stroke="#9A9A9A" stroke-width="2" stroke-linecap="round" stroke-linejoin="round"/></g><g transform="translate(1194.5, 570)" width="11" height="20"><text text-decoration="none" x="0" fill="#4b4b4b" font-size="11pt" font-family="lt_regular"  y="16">N</text><text text-decoration="none" x="11" fill="#4b4b4b" font-size="10pt" font-family="noto_regular"  y="16"></text></g></g><g id="5mrOaRl3Auy"><g transform="translate(1000 770)"><ellipse cx="50" cy="25" rx="50" ry="25" fill="rgb(35,169,225)" stroke="#23a9e1" stroke-width="2" stroke-linecap="round" stroke-linejoin="round" stroke-dasharray="0 0"/></g><g transform="translate(1018, 785) rotate(0, 32, 10)" width="64" height="20"><text text-decoration="underline" x="0" fill="#ffffff" font-size="11pt" font-family="lt_regular"  y="16">AirLine_id</text><text text-decoration="none" x="66" fill="#4b4b4b" font-size="10pt" font-family="noto_regular"  y="16"></text></g></g><g id="3Mwlh6axwJ6"><g transform="translate(1000 830)"><ellipse cx="50" cy="25" rx="50" ry="25" fill="rgb(35,169,225)" stroke="#23a9e1" stroke-width="2" stroke-linecap="round" stroke-linejoin="round" stroke-dasharray="0 0"/></g><g transform="translate(1005, 845) rotate(0, 45, 10)" width="90" height="20"><text text-decoration="none" x="0" fill="#ffffff" font-size="11pt" font-family="lt_regular"  y="16">AirLine_Name</text><text text-decoration="none" x="92" fill="#4b4b4b" font-size="10pt" font-family="noto_regular"  y="16"></text></g></g><g id="oyR9jWZTNcS"><mask id="497e1" x="1186" y="686" width="28" height="128" maskUnits="userSpaceOnUse"><rect x="1186" y="686" width="28" height="128" fill="white" /><rect x="1193" y="757" width="14" height="26" fill="black" /></mask><g mask="url(#497e1)"><path d="M 1200,700 L 1200,800" fill="none" stroke="#9A9A9A" stroke-width="2" stroke-linecap="round" stroke-linejoin="round"/></g><g transform="translate(1196, 760)" width="8" height="20"><text text-decoration="none" x="0" fill="#4b4b4b" font-size="11pt" font-family="lt_regular"  y="16">1</text><text text-decoration="none" x="9" fill="#4b4b4b" font-size="10pt" font-family="noto_regular"  y="16"></text></g></g><g id="Qwz9WhLicO3"><g><path d="M 1100,795 L 1125,810 L 1150,825" fill="none" stroke="#9A9A9A" stroke-width="2" stroke-linecap="round" stroke-linejoin="round"/></g></g><g id="Ndptfws7CkM"><g><path d="M 1100,855 L 1125,840 L 1150,825" fill="none" stroke="#9A9A9A" stroke-width="2" stroke-linecap="round" stroke-linejoin="round"/></g></g></svg>